<?xml version="1.0" standalone="no"?>
<!DOCTYPE svg PUBLIC "-//W3C//DTD SVG 20010904//EN"
 "http://www.w3.org/TR/2001/REC-SVG-20010904/DTD/svg10.dtd">
<svg version="1.0" xmlns="http://www.w3.org/2000/svg"
 width="150.000000pt" height="150.000000pt" viewBox="0 0 150.000000 150.000000"
 preserveAspectRatio="xMidYMid meet">
<metadata>
Created by potrace 1.11, written by Peter Selinger 2001-2013
</metadata>
<g transform="translate(0.000000,150.000000) scale(0.100000,-0.100000)"
fill="#000000" stroke="none">
<path d="M605 1485 c-206 -44 -372 -157 -484 -330 -87 -133 -121 -260 -116
-428 5 -155 38 -261 119 -387 143 -220 379 -342 648 -335 57 1 112 5 123 8 11
3 34 8 50 12 76 19 212 88 274 140 106 88 196 215 238 337 31 89 33 98 38 223
9 211 -64 399 -215 554 -83 84 -239 176 -331 195 -13 3 -35 8 -49 11 -51 13
-236 13 -295 0z"/>
</g>
</svg>
